<?xml version="1.0" standalone="no"?>
<!DOCTYPE svg PUBLIC "-//W3C//DTD SVG 20010904//EN"
 "http://www.w3.org/TR/2001/REC-SVG-20010904/DTD/svg10.dtd">
<svg version="1.0" xmlns="http://www.w3.org/2000/svg"
 width="2500.000000pt" height="2500.000000pt" viewBox="0 0 2500.000000 2500.000000"
 preserveAspectRatio="xMidYMid meet">
<metadata>
Created by potrace 1.14, written by Peter Selinger 2001-2017
</metadata>
<g transform="translate(0.000000,2500.000000) scale(0.100000,-0.100000)"
fill="#000000" stroke="none">
<path d="M24089 20427 c-238 -145 -302 -186 -579 -365 -123 -80 -193 -126
-676 -445 -360 -237 -769 -497 -784 -497 -5 0 -10 -3 -10 -7 0 -5 -10 -13 -23
-19 -12 -6 -71 -40 -132 -76 -103 -60 -233 -133 -298 -166 -16 -8 -31 -11 -34
-8 -9 8 -8 53 1 121 15 112 15 128 1 155 -16 31 -33 40 -79 40 -36 0 -26 6
-241 -149 -251 -180 -286 -206 -517 -378 -227 -171 -236 -176 -305 -151 -51
19 -63 56 -62 195 1 161 -10 187 -92 202 -108 19 -314 -79 -604 -288 -27 -19
-184 -135 -347 -258 -306 -228 -465 -338 -534 -369 -21 -10 -85 -44 -141 -77
-228 -130 -226 -88 7 143 144 144 225 216 480 430 80 67 156 132 170 144 14
11 77 63 140 114 63 51 123 100 134 108 10 9 57 45 105 81 76 57 82 64 53 60
-72 -12 -35 26 203 208 139 106 235 197 235 225 0 35 -95 136 -157 167 -54 26
-66 28 -168 27 -87 -1 -129 -7 -200 -28 -201 -59 -430 -160 -680 -300 -180
-101 -210 -112 -261 -92 -23 9 -35 55 -41 156 -3 52 -10 105 -17 117 l-11 22
-32 -27 c-17 -15 -55 -45 -83 -67 -67 -51 -219 -171 -245 -193 -11 -9 -52 -42
-90 -72 -38 -30 -79 -62 -90 -72 -11 -9 -51 -42 -90 -73 -38 -31 -79 -63 -90
-72 -20 -17 -217 -177 -249 -203 -10 -8 -23 -20 -30 -25 -6 -6 -49 -42 -96
-80 -47 -38 -90 -74 -96 -80 -6 -5 -30 -26 -54 -45 -24 -19 -48 -40 -54 -45
-6 -6 -54 -46 -106 -90 -106 -89 -569 -484 -586 -500 -6 -5 -37 -32 -69 -60
-32 -27 -63 -55 -69 -61 -6 -5 -36 -32 -66 -58 -129 -113 -184 -162 -194 -171
-6 -5 -51 -46 -101 -90 -49 -44 -95 -84 -101 -90 -6 -5 -46 -41 -89 -80 -43
-38 -88 -79 -99 -90 -12 -11 -64 -58 -116 -105 -52 -47 -101 -92 -110 -100 -9
-8 -45 -42 -81 -75 -164 -151 -320 -296 -392 -365 -44 -41 -94 -88 -112 -105
-40 -38 -384 -367 -479 -458 -381 -368 -1286 -1285 -1526 -1547 -18 -19 -84
-91 -149 -159 -64 -69 -145 -156 -181 -195 -36 -39 -79 -85 -97 -104 -17 -19
-55 -60 -84 -93 -28 -32 -70 -78 -93 -102 -22 -23 -93 -101 -156 -172 -63 -72
-117 -132 -120 -135 -3 -3 -39 -43 -80 -90 -41 -47 -77 -87 -80 -90 -3 -3 -37
-41 -75 -85 -39 -44 -72 -82 -76 -85 -3 -3 -72 -84 -154 -180 -83 -96 -154
-180 -160 -186 -5 -6 -28 -32 -50 -59 -22 -26 -45 -53 -51 -60 -22 -22 -370
-441 -478 -575 -60 -74 -112 -137 -115 -140 -4 -3 -22 -25 -41 -50 -19 -25
-45 -56 -56 -70 -12 -14 -100 -119 -195 -235 -95 -115 -176 -212 -179 -215 -6
-6 -99 -117 -115 -138 -5 -7 -19 -23 -31 -35 -11 -12 -79 -92 -149 -177 -71
-85 -132 -157 -135 -160 -3 -3 -70 -81 -150 -175 -79 -93 -146 -172 -150 -175
-3 -3 -41 -48 -84 -100 -44 -52 -84 -99 -90 -105 -6 -5 -35 -39 -65 -75 -30
-36 -64 -75 -75 -86 -12 -12 -37 -41 -56 -65 -19 -24 -67 -80 -105 -124 -39
-44 -109 -125 -155 -180 -47 -55 -87 -102 -90 -105 -3 -3 -43 -50 -90 -105
-47 -55 -92 -107 -100 -115 -8 -8 -59 -67 -112 -130 -53 -63 -109 -129 -125
-147 -15 -17 -44 -50 -62 -74 -19 -23 -40 -47 -46 -53 -5 -6 -46 -54 -90 -106
-44 -52 -82 -97 -85 -100 -3 -3 -41 -48 -85 -100 -44 -52 -90 -106 -101 -120
-35 -41 -214 -253 -236 -280 -12 -14 -35 -41 -52 -61 -17 -20 -45 -53 -63 -75
-17 -21 -67 -82 -112 -134 -44 -52 -120 -143 -168 -202 l-87 -108 -110 108
c-168 164 -202 199 -321 327 -171 183 -177 190 -345 365 -206 215 -285 302
-342 376 -12 16 -28 34 -34 39 -11 10 -63 74 -561 701 -122 153 -230 288 -240
299 -10 11 -40 47 -68 80 -150 181 -374 416 -482 507 -35 29 -74 61 -86 72
-36 30 -128 91 -192 127 -58 32 -61 29 -20 -17 6 -6 28 -33 50 -59 22 -27 54
-65 72 -84 17 -20 64 -74 103 -121 97 -114 102 -119 205 -240 81 -95 85 -101
40 -65 -89 71 -118 98 -280 260 -233 232 -325 339 -664 765 -208 262 -378 474
-396 494 -6 6 -30 36 -55 66 -25 30 -49 60 -55 66 -5 6 -46 50 -89 98 -44 48
-94 103 -113 122 l-33 35 -37 -28 c-68 -52 -135 -36 -293 75 -31 21 167 -207
401 -463 25 -27 66 -72 90 -100 24 -27 46 -52 49 -55 3 -3 39 -43 80 -90 41
-47 80 -90 85 -96 6 -6 35 -39 65 -75 30 -35 71 -82 91 -104 98 -111 338 -411
397 -497 l32 -46 -36 -29 c-20 -15 -47 -38 -61 -50 -13 -13 -28 -23 -32 -23
-13 0 -170 168 -281 300 -58 69 -108 127 -111 130 -7 6 -187 232 -258 324 -30
38 -60 76 -67 85 -22 27 -148 185 -156 196 -58 78 -291 346 -390 449 -65 68
-47 71 -172 -32 -74 -62 -76 -63 -103 -48 -15 8 -57 43 -93 78 -35 35 -58 54
-50 42 13 -19 99 -120 125 -148 6 -6 62 -72 125 -146 63 -74 127 -148 141
-165 15 -16 49 -57 76 -89 l50 -60 -71 -61 c-117 -101 -112 -99 -160 -65 -49
33 -148 136 -270 278 -66 76 -93 101 -105 96 -9 -4 -61 -8 -115 -11 -139 -5
-154 -23 -108 -125 9 -20 131 -170 269 -332 139 -162 253 -296 253 -298 0 -2
-64 60 -142 137 -126 124 -203 194 -326 300 -87 75 -257 203 -364 275 -259
172 -481 259 -590 229 l-40 -10 55 -57 c60 -64 74 -87 117 -199 16 -42 41 -94
56 -116 31 -48 28 -55 -11 -20 -17 14 -115 90 -220 168 -407 305 -649 441
-670 376 -16 -50 36 -150 184 -356 54 -75 110 -145 263 -330 9 -11 83 -101
165 -200 264 -320 687 -830 698 -842 5 -6 26 -31 46 -55 91 -110 264 -317 298
-358 21 -25 89 -106 150 -180 62 -74 120 -144 130 -155 9 -11 133 -159 276
-330 384 -460 458 -547 482 -575 18 -22 234 -278 281 -335 19 -22 165 -195
199 -235 11 -14 89 -106 173 -205 84 -99 162 -191 173 -205 12 -14 45 -52 72
-85 28 -33 52 -62 55 -65 3 -3 28 -32 55 -65 28 -33 52 -62 55 -65 7 -6 182
-213 300 -355 47 -56 146 -173 220 -260 74 -87 163 -192 197 -233 35 -40 85
-99 112 -130 46 -53 314 -368 407 -478 23 -27 52 -60 64 -74 12 -14 40 -47 63
-75 42 -49 163 -190 182 -211 5 -7 26 -31 44 -54 19 -23 40 -48 45 -54 22 -23
82 -93 126 -146 25 -30 59 -70 76 -90 17 -19 113 -132 214 -250 100 -118 194
-228 209 -245 14 -16 49 -57 76 -90 28 -33 52 -62 55 -65 3 -3 34 -39 69 -80
35 -41 85 -100 111 -130 26 -30 91 -107 145 -170 53 -63 109 -128 124 -145 15
-16 62 -73 106 -125 44 -52 84 -100 90 -106 5 -6 32 -36 59 -67 l49 -56 144
192 c79 105 152 203 163 217 10 14 218 291 462 615 365 486 748 988 797 1047
15 18 109 136 146 183 17 22 53 67 80 101 28 35 58 73 68 86 29 37 67 84 146
182 40 50 87 109 105 130 17 22 55 69 84 105 29 36 58 73 65 81 256 318 976
1190 1086 1315 20 23 55 63 77 90 79 94 338 400 344 405 3 3 30 34 60 70 30
36 57 67 60 70 3 3 30 34 60 70 30 36 67 78 81 95 15 16 75 86 135 155 153
175 158 181 169 194 6 6 37 43 70 81 33 39 65 75 71 80 5 6 39 44 75 85 35 41
66 77 69 80 3 3 53 59 110 125 58 65 112 126 120 135 8 9 31 34 50 56 49 55
188 211 230 258 19 21 40 44 45 50 25 29 193 215 226 251 20 22 65 72 99 110
35 39 71 77 79 86 9 8 43 46 76 83 33 38 74 82 90 100 17 17 75 81 130 141
137 150 254 276 397 430 36 39 80 86 98 105 18 19 87 94 155 165 67 72 137
146 155 165 28 30 102 108 404 423 416 435 1383 1410 1782 1797 260 252 690
664 784 750 19 18 96 89 170 158 74 70 166 156 205 192 38 36 97 90 130 121
33 31 84 78 114 105 29 27 70 65 91 84 20 19 57 53 81 74 38 34 202 182 233
211 20 19 290 260 325 290 19 17 39 35 45 40 6 6 47 42 91 80 44 39 82 72 85
75 3 3 36 32 75 65 38 33 75 65 81 70 18 17 121 106 254 220 69 59 139 119
155 134 17 14 73 62 125 106 52 44 106 90 120 102 215 185 557 466 885 728
138 110 255 205 261 210 6 6 26 22 45 36 128 100 206 162 221 173 9 8 94 74
190 147 95 73 175 136 178 139 3 3 21 17 40 30 19 13 37 27 40 30 3 3 124 95
270 203 146 109 273 205 283 213 9 8 20 14 23 14 3 0 11 6 18 13 22 20 224
166 576 415 415 293 1042 713 1380 925 350 220 357 224 430 286 171 146 197
207 107 252 -23 12 -56 32 -73 45 l-31 23 -184 -112z"/>
</g>
</svg>
